<svg xmlns="http://www.w3.org/2000/svg" viewBox="0 0 2107.4 1988" width="2107.4" height="1988" style="--bg:#2e3440;--fg:#d8dee9;--line:#4c566a;--accent:#88c0d0;--muted:#616e88;background:var(--bg)">
<style>
  @import url('https://fonts.googleapis.com/css2?family=Inter:wght@400;500;600;700&amp;display=swap');
  text { font-family: 'Inter', system-ui, sans-serif; }
  svg {
    /* Derived from --bg and --fg (overridable via --line, --accent, etc.) */
    --_text:          var(--fg);
    --_text-sec:      var(--muted, color-mix(in srgb, var(--fg) 60%, var(--bg)));
    --_text-muted:    var(--muted, color-mix(in srgb, var(--fg) 40%, var(--bg)));
    --_text-faint:    color-mix(in srgb, var(--fg) 25%, var(--bg));
    --_line:          var(--line, color-mix(in srgb, var(--fg) 30%, var(--bg)));
    --_arrow:         var(--accent, color-mix(in srgb, var(--fg) 50%, var(--bg)));
    --_node-fill:     var(--surface, color-mix(in srgb, var(--fg) 3%, var(--bg)));
    --_node-stroke:   var(--border, color-mix(in srgb, var(--fg) 20%, var(--bg)));
    --_group-fill:    var(--bg);
    --_group-hdr:     color-mix(in srgb, var(--fg) 5%, var(--bg));
    --_inner-stroke:  color-mix(in srgb, var(--fg) 12%, var(--bg));
    --_key-badge:     color-mix(in srgb, var(--fg) 10%, var(--bg));
  }
</style>
<defs>
  <marker id="arrowhead" markerWidth="8" markerHeight="4.8" refX="8" refY="2.4" orient="auto">
    <polygon points="0 0, 8 2.4, 0 4.8" fill="var(--_arrow)" />
  </marker>
  <marker id="arrowhead-start" markerWidth="8" markerHeight="4.8" refX="0" refY="2.4" orient="auto-start-reverse">
    <polygon points="8 0, 0 2.4, 8 4.8" fill="var(--_arrow)" />
  </marker>
</defs>
<rect x="40" y="140" width="668.25" height="112" rx="0" ry="0" fill="var(--_group-fill)" stroke="var(--_node-stroke)" stroke-width="1" />
<rect x="40" y="140" width="668.25" height="28" rx="0" ry="0" fill="var(--_group-hdr)" stroke="var(--_node-stroke)" stroke-width="1" />
<text x="52" y="154" dy="0.35em" font-size="12" font-weight="600" fill="var(--_text-sec)">📥 Data Ingestion</text>
<rect x="728.25" y="140" width="1339.15" height="112" rx="0" ry="0" fill="var(--_group-fill)" stroke="var(--_node-stroke)" stroke-width="1" />
<rect x="728.25" y="140" width="1339.15" height="28" rx="0" ry="0" fill="var(--_group-hdr)" stroke="var(--_node-stroke)" stroke-width="1" />
<text x="740.25" y="154" dy="0.35em" font-size="12" font-weight="600" fill="var(--_text-sec)">🛰️ Ephemeris Sources</text>
<rect x="57.875" y="296" width="1517.375" height="112" rx="0" ry="0" fill="var(--_group-fill)" stroke="var(--_node-stroke)" stroke-width="1" />
<rect x="57.875" y="296" width="1517.375" height="28" rx="0" ry="0" fill="var(--_group-hdr)" stroke="var(--_node-stroke)" stroke-width="1" />
<text x="69.875" y="310" dy="0.35em" font-size="12" font-weight="600" fill="var(--_text-sec)">🔍 Reading and Parsing</text>
<rect x="170.2750000000001" y="452" width="1861.375" height="424" rx="0" ry="0" fill="var(--_group-fill)" stroke="var(--_node-stroke)" stroke-width="1" />
<rect x="170.2750000000001" y="452" width="1861.375" height="28" rx="0" ry="0" fill="var(--_group-hdr)" stroke="var(--_node-stroke)" stroke-width="1" />
<text x="182.2750000000001" y="466" dy="0.35em" font-size="12" font-weight="600" fill="var(--_text-sec)">⚙️ Geometry Augmentation</text>
<rect x="617.6875" y="920" width="732.5999999999999" height="268" rx="0" ry="0" fill="var(--_group-fill)" stroke="var(--_node-stroke)" stroke-width="1" />
<rect x="617.6875" y="920" width="732.5999999999999" height="28" rx="0" ry="0" fill="var(--_group-hdr)" stroke="var(--_node-stroke)" stroke-width="1" />
<text x="629.6875" y="934" dy="0.35em" font-size="12" font-weight="600" fill="var(--_text-sec)">💾 Versioned Storage - Icechunk</text>
<rect x="315.79999999999984" y="1232" width="962.925" height="424" rx="0" ry="0" fill="var(--_group-fill)" stroke="var(--_node-stroke)" stroke-width="1" />
<rect x="315.79999999999984" y="1232" width="962.925" height="28" rx="0" ry="0" fill="var(--_group-hdr)" stroke="var(--_node-stroke)" stroke-width="1" />
<text x="327.79999999999984" y="1246" dy="0.35em" font-size="12" font-weight="600" fill="var(--_text-sec)">📊 Analysis</text>
<rect x="282.83749999999986" y="1700" width="995.95" height="112" rx="0" ry="0" fill="var(--_group-fill)" stroke="var(--_node-stroke)" stroke-width="1" />
<rect x="282.83749999999986" y="1700" width="995.95" height="28" rx="0" ry="0" fill="var(--_group-hdr)" stroke="var(--_node-stroke)" stroke-width="1" />
<text x="294.83749999999986" y="1714" dy="0.35em" font-size="12" font-weight="600" fill="var(--_text-sec)">📈 Output</text>
<polyline points="210.2750000000001,76 210.2750000000001,196" fill="none" stroke="var(--_line)" stroke-width="0.75" marker-end="url(#arrowhead)" />
<polyline points="210.2750000000001,232 210.2750000000001,352" fill="none" stroke="var(--_line)" stroke-width="0.75" marker-end="url(#arrowhead)" />
<polyline points="534.4000000000001,232 534.4000000000001,352" fill="none" stroke="var(--_line)" stroke-width="0.75" marker-end="url(#arrowhead)" />
<polyline points="966.45,232 966.45,370 1201.2875000000001,370" fill="none" stroke="var(--_line)" stroke-width="0.75" marker-end="url(#arrowhead)" />
<polyline points="1822.0500000000002,232 1822.0500000000002,508" fill="none" stroke="var(--_line)" stroke-width="0.75" stroke-dasharray="4 4" marker-end="url(#arrowhead)" />
<polyline points="1390.6750000000002,232 1390.6750000000002,370 1526.4375000000002,370" fill="none" stroke="var(--_line)" stroke-width="0.75" stroke-dasharray="4 4" marker-end="url(#arrowhead)" />
<polyline points="210.2750000000001,388 210.2750000000001,838 769.575,838" fill="none" stroke="var(--_line)" stroke-width="0.75" marker-end="url(#arrowhead)" />
<polyline points="534.4000000000001,388 534.4000000000001,838 769.575,838" fill="none" stroke="var(--_line)" stroke-width="0.75" marker-end="url(#arrowhead)" />
<polyline points="1363.8625000000002,388 1363.8625000000002,508" fill="none" stroke="var(--_line)" stroke-width="0.75" marker-end="url(#arrowhead)" />
<polyline points="1363.8625000000002,544 1363.8625000000002,664" fill="none" stroke="var(--_line)" stroke-width="0.75" marker-end="url(#arrowhead)" />
<polyline points="1363.8625000000002,700 1363.8625000000002,838 1201.9750000000001,838" fill="none" stroke="var(--_line)" stroke-width="0.75" marker-end="url(#arrowhead)" />
<polyline points="1822.0500000000002,544 1822.0500000000002,838 1201.9750000000001,838" fill="none" stroke="var(--_line)" stroke-width="0.75" marker-end="url(#arrowhead)" />
<polyline points="985.7750000000001,856 985.7750000000001,976" fill="none" stroke="var(--_line)" stroke-width="0.75" marker-end="url(#arrowhead)" />
<polyline points="985.7750000000001,1012 985.7750000000001,1032 825.5,1032 825.5,1132" fill="none" stroke="var(--_line)" stroke-width="0.75" marker-end="url(#arrowhead)" />
<polyline points="985.7750000000001,1012 985.7750000000001,1032 1146.0500000000002,1032 1146.0500000000002,1132" fill="none" stroke="var(--_line)" stroke-width="0.75" marker-end="url(#arrowhead)" />
<polyline points="825.5,1168 825.5,1288" fill="none" stroke="var(--_line)" stroke-width="0.75" marker-end="url(#arrowhead)" />
<polyline points="825.5,1324 825.5,1444" fill="none" stroke="var(--_line)" stroke-width="0.75" marker-end="url(#arrowhead)" />
<polyline points="825.5,1480 825.5,1600" fill="none" stroke="var(--_line)" stroke-width="0.75" marker-end="url(#arrowhead)" />
<polyline points="825.5,1636 825.5,1656 470.9874999999999,1656 470.9874999999999,1756" fill="none" stroke="var(--_line)" stroke-width="0.75" marker-end="url(#arrowhead)" />
<polyline points="824.6532894736841,1636 823.7124999999999,1756" fill="none" stroke="var(--_line)" stroke-width="0.75" marker-end="url(#arrowhead)" />
<polyline points="825.5,1636 825.5,1656 1133.5375,1656 1133.5375,1756" fill="none" stroke="var(--_line)" stroke-width="0.75" marker-end="url(#arrowhead)" />
<polyline points="470.9874999999999,1792 470.9874999999999,1930 771.9624999999999,1930" fill="none" stroke="var(--_line)" stroke-width="0.75" marker-end="url(#arrowhead)" />
<polyline points="823.7124999999999,1792 823.7124999999999,1912" fill="none" stroke="var(--_line)" stroke-width="0.75" marker-end="url(#arrowhead)" />
<polyline points="1133.5375,1792 1133.5375,1930 875.4624999999999,1930" fill="none" stroke="var(--_line)" stroke-width="0.75" marker-end="url(#arrowhead)" />
<rect x="126.35000000000008" y="40" width="167.85000000000002" height="36" rx="18" ry="18" fill="#4caf50" stroke="#1b5e20" stroke-width="3px" />
<rect x="771.9624999999999" y="1912" width="103.5" height="36" rx="18" ry="18" fill="#4caf50" stroke="#1b5e20" stroke-width="3px" />
<rect x="62.000000000000085" y="196" width="296.55" height="36" rx="0" ry="0" fill="var(--_node-fill)" stroke="var(--_node-stroke)" stroke-width="0.75" />
<rect x="382.55000000000007" y="196" width="303.70000000000005" height="36" rx="0" ry="0" fill="var(--_node-fill)" stroke="var(--_node-stroke)" stroke-width="0.75" />
<rect x="750.25" y="196" width="432.40000000000003" height="36" rx="0" ry="0" fill="var(--_node-fill)" stroke="var(--_node-stroke)" stroke-width="0.75" />
<rect x="1598.7000000000003" y="196" width="446.70000000000005" height="36" rx="0" ry="0" fill="var(--_node-fill)" stroke="var(--_node-stroke)" stroke-width="0.75" />
<rect x="1206.65" y="196" width="368.05" height="36" rx="0" ry="0" fill="#fff9c4" stroke="#f9a825" stroke-width="2px" />
<rect x="79.87500000000009" y="352" width="260.8" height="36" rx="0" ry="0" fill="var(--_node-fill)" stroke="var(--_node-stroke)" stroke-width="0.75" />
<rect x="378.9750000000001" y="352" width="310.85" height="36" rx="0" ry="0" fill="var(--_node-fill)" stroke="var(--_node-stroke)" stroke-width="0.75" />
<rect x="1201.2875000000001" y="352" width="325.15000000000003" height="36" rx="0" ry="0" fill="var(--_node-fill)" stroke="var(--_node-stroke)" stroke-width="0.75" />
<rect x="1154.8125000000002" y="508" width="418.1" height="36" rx="0" ry="0" fill="var(--_node-fill)" stroke="var(--_node-stroke)" stroke-width="0.75" />
<rect x="1158.3875000000003" y="664" width="410.95000000000005" height="36" rx="0" ry="0" fill="var(--_node-fill)" stroke="var(--_node-stroke)" stroke-width="0.75" />
<rect x="1663.0500000000002" y="508" width="318" height="36" rx="0" ry="0" fill="var(--_node-fill)" stroke="var(--_node-stroke)" stroke-width="0.75" />
<rect x="769.575" y="820" width="432.40000000000003" height="36" rx="0" ry="0" fill="var(--_node-fill)" stroke="var(--_node-stroke)" stroke-width="0.75" />
<rect x="766.0000000000001" y="976" width="439.55" height="36" rx="0" ry="0" fill="var(--_node-fill)" stroke="var(--_node-stroke)" stroke-width="0.75" />
<rect x="673.65" y="1132" width="303.70000000000005" height="36" rx="0" ry="0" fill="var(--_node-fill)" stroke="var(--_node-stroke)" stroke-width="0.75" />
<rect x="1001.3500000000001" y="1132" width="289.40000000000003" height="36" rx="0" ry="0" fill="var(--_node-fill)" stroke="var(--_node-stroke)" stroke-width="0.75" />
<rect x="612.875" y="1288" width="425.25000000000006" height="36" rx="0" ry="0" fill="var(--_node-fill)" stroke="var(--_node-stroke)" stroke-width="0.75" />
<rect x="577.125" y="1444" width="496.75000000000006" height="36" rx="0" ry="0" fill="var(--_node-fill)" stroke="var(--_node-stroke)" stroke-width="0.75" />
<rect x="677.225" y="1600" width="296.55" height="36" rx="0" ry="0" fill="var(--_node-fill)" stroke="var(--_node-stroke)" stroke-width="0.75" />
<rect x="304.83749999999986" y="1756" width="332.3" height="36" rx="0" ry="0" fill="var(--_node-fill)" stroke="var(--_node-stroke)" stroke-width="0.75" />
<rect x="661.1374999999998" y="1756" width="325.15000000000003" height="36" rx="0" ry="0" fill="var(--_node-fill)" stroke="var(--_node-stroke)" stroke-width="0.75" />
<rect x="1010.2874999999999" y="1756" width="246.50000000000003" height="36" rx="0" ry="0" fill="var(--_node-fill)" stroke="var(--_node-stroke)" stroke-width="0.75" />
<text x="210.2750000000001" y="58" text-anchor="middle" dy="0.35em" font-size="13" font-weight="500" fill="#fff">🚀 Start Processing</text>
<text x="823.7124999999999" y="1930" text-anchor="middle" dy="0.35em" font-size="13" font-weight="500" fill="#fff">✅ Complete</text>
<text x="210.2750000000001" y="214" text-anchor="middle" dy="0.35em" font-size="13" font-weight="500" fill="var(--_text)">&quot;📄 RINEX OBS Files&lt;br/&gt;(.XXo, .rnx)&quot;</text>
<text x="534.4000000000001" y="214" text-anchor="middle" dy="0.35em" font-size="13" font-weight="500" fill="var(--_text)">&quot;📦 SBF Binary Files&lt;br/&gt;(.XX_, .sbf)&quot;</text>
<text x="966.45" y="214" text-anchor="middle" dy="0.35em" font-size="13" font-weight="500" fill="var(--_text)">&quot;🏛️ Agency Final&lt;br/&gt;SP3 + CLK&lt;br/&gt;(12-18 day latency)&quot;</text>
<text x="1822.0500000000002" y="214" text-anchor="middle" dy="0.35em" font-size="13" font-weight="500" fill="var(--_text)">&quot;📡 SBF Broadcast&lt;br/&gt;SatVisibility block&lt;br/&gt;(immediate)&quot;</text>
<text x="1390.6750000000002" y="214" text-anchor="middle" dy="0.35em" font-size="13" font-weight="500" fill="var(--_text)">&quot;📄 RINEX NAV 🚧&lt;br/&gt;.YYp / .YYn&lt;br/&gt;(planned)&quot;</text>
<text x="210.2750000000001" y="370" text-anchor="middle" dy="0.35em" font-size="13" font-weight="500" fill="var(--_text)">&quot;Rnxv3Obs&lt;br/&gt;Parse RINEX v3.04&quot;</text>
<text x="534.4000000000001" y="370" text-anchor="middle" dy="0.35em" font-size="13" font-weight="500" fill="var(--_text)">&quot;SbfReader&lt;br/&gt;Parse Septentrio Binary&quot;</text>
<text x="1363.8625000000002" y="370" text-anchor="middle" dy="0.35em" font-size="13" font-weight="500" fill="var(--_text)">&quot;SP3/CLK Parsers&lt;br/&gt;Load Auxiliary Data&quot;</text>
<text x="1363.8625000000002" y="526" text-anchor="middle" dy="0.35em" font-size="13" font-weight="500" fill="var(--_text)">&quot;Hermite Interpolation&lt;br/&gt;Orbits/clocks → obs epochs&quot;</text>
<text x="1363.8625000000002" y="682" text-anchor="middle" dy="0.35em" font-size="13" font-weight="500" fill="var(--_text)">&quot;Coordinate Transform&lt;br/&gt;ECEF → spherical (r, θ, φ)&quot;</text>
<text x="1822.0500000000002" y="526" text-anchor="middle" dy="0.35em" font-size="13" font-weight="500" fill="var(--_text)">&quot;Direct θ, φ&lt;br/&gt;From receiver firmware&quot;</text>
<text x="985.7750000000001" y="838" text-anchor="middle" dy="0.35em" font-size="13" font-weight="500" fill="var(--_text)">&quot;Dataset Augmentation&lt;br/&gt;Merge observations + geometry&quot;</text>
<text x="985.7750000000001" y="994" text-anchor="middle" dy="0.35em" font-size="13" font-weight="500" fill="var(--_text)">&quot;3-Layer Deduplication&lt;br/&gt;Hash · Temporal · Intra-batch&quot;</text>
<text x="825.5" y="1150" text-anchor="middle" dy="0.35em" font-size="13" font-weight="500" fill="var(--_text)">&quot;Observations Store&lt;br/&gt;(epoch × sid)&quot;</text>
<text x="1146.0500000000002" y="1150" text-anchor="middle" dy="0.35em" font-size="13" font-weight="500" fill="var(--_text)">&quot;Metadata Table&lt;br/&gt;File provenance&quot;</text>
<text x="825.5" y="1306" text-anchor="middle" dy="0.35em" font-size="13" font-weight="500" fill="var(--_text)">&quot;VodComputer&lt;br/&gt;Tau-Omega model · canopy vs reference&quot;</text>
<text x="825.5" y="1462" text-anchor="middle" dy="0.35em" font-size="13" font-weight="500" fill="var(--_text)">&quot;Hemispheric Grid Assignment&lt;br/&gt;Equal-area / HEALPix / geodesic&quot;</text>
<text x="825.5" y="1618" text-anchor="middle" dy="0.35em" font-size="13" font-weight="500" fill="var(--_text)">&quot;Aggregation&lt;br/&gt;Per-cell statistics&quot;</text>
<text x="470.98749999999984" y="1774" text-anchor="middle" dy="0.35em" font-size="13" font-weight="500" fill="var(--_text)">&quot;2D Hemisphere Plots&lt;br/&gt;Polar projection&quot;</text>
<text x="823.7124999999999" y="1774" text-anchor="middle" dy="0.35em" font-size="13" font-weight="500" fill="var(--_text)">&quot;3D Interactive Plots&lt;br/&gt;Plotly surface&quot;</text>
<text x="1133.5375" y="1774" text-anchor="middle" dy="0.35em" font-size="13" font-weight="500" fill="var(--_text)">&quot;Data Export&lt;br/&gt;NetCDF / CSV&quot;</text>
</svg>
