<svg id="my-svg" width="100%" xmlns="http://www.w3.org/2000/svg" xmlns:xlink="http://www.w3.org/1999/xlink" class="flowchart" style="max-width: 1409.64px; background-color: transparent;" viewBox="0 0 1409.64453125 532" role="graphics-document document" aria-roledescription="flowchart-v2"><style>#my-svg{font-family:"trebuchet ms",verdana,arial,sans-serif;font-size:16px;fill:#333;}@keyframes edge-animation-frame{from{stroke-dashoffset:0;}}@keyframes dash{to{stroke-dashoffset:0;}}#my-svg .edge-animation-slow{stroke-dasharray:9,5!important;stroke-dashoffset:900;animation:dash 50s linear infinite;stroke-linecap:round;}#my-svg .edge-animation-fast{stroke-dasharray:9,5!important;stroke-dashoffset:900;animation:dash 20s linear infinite;stroke-linecap:round;}#my-svg .error-icon{fill:#552222;}#my-svg .error-text{fill:#552222;stroke:#552222;}#my-svg .edge-thickness-normal{stroke-width:1px;}#my-svg .edge-thickness-thick{stroke-width:3.5px;}#my-svg .edge-pattern-solid{stroke-dasharray:0;}#my-svg .edge-thickness-invisible{stroke-width:0;fill:none;}#my-svg .edge-pattern-dashed{stroke-dasharray:3;}#my-svg .edge-pattern-dotted{stroke-dasharray:2;}#my-svg .marker{fill:#333333;stroke:#333333;}#my-svg .marker.cross{stroke:#333333;}#my-svg svg{font-family:"trebuchet ms",verdana,arial,sans-serif;font-size:16px;}#my-svg p{margin:0;}#my-svg .label{font-family:"trebuchet ms",verdana,arial,sans-serif;color:#333;}#my-svg .cluster-label text{fill:#333;}#my-svg .cluster-label span{color:#333;}#my-svg .cluster-label span p{background-color:transparent;}#my-svg .label text,#my-svg span{fill:#333;color:#333;}#my-svg .node rect,#my-svg .node circle,#my-svg .node ellipse,#my-svg .node polygon,#my-svg .node path{fill:#ECECFF;stroke:#9370DB;stroke-width:1px;}#my-svg .rough-node .label text,#my-svg .node .label text,#my-svg .image-shape .label,#my-svg .icon-shape .label{text-anchor:middle;}#my-svg .node .katex path{fill:#000;stroke:#000;stroke-width:1px;}#my-svg .rough-node .label,#my-svg .node .label,#my-svg .image-shape .label,#my-svg .icon-shape .label{text-align:center;}#my-svg .node.clickable{cursor:pointer;}#my-svg .root .anchor path{fill:#333333!important;stroke-width:0;stroke:#333333;}#my-svg .arrowheadPath{fill:#333333;}#my-svg .edgePath .path{stroke:#333333;stroke-width:2.0px;}#my-svg .flowchart-link{stroke:#333333;fill:none;}#my-svg .edgeLabel{background-color:rgba(232,232,232, 0.8);text-align:center;}#my-svg .edgeLabel p{background-color:rgba(232,232,232, 0.8);}#my-svg .edgeLabel rect{opacity:0.5;background-color:rgba(232,232,232, 0.8);fill:rgba(232,232,232, 0.8);}#my-svg .labelBkg{background-color:rgba(232, 232, 232, 0.5);}#my-svg .cluster rect{fill:#ffffde;stroke:#aaaa33;stroke-width:1px;}#my-svg .cluster text{fill:#333;}#my-svg .cluster span{color:#333;}#my-svg div.mermaidTooltip{position:absolute;text-align:center;max-width:200px;padding:2px;font-family:"trebuchet ms",verdana,arial,sans-serif;font-size:12px;background:hsl(80, 100%, 96.2745098039%);border:1px solid #aaaa33;border-radius:2px;pointer-events:none;z-index:100;}#my-svg .flowchartTitleText{text-anchor:middle;font-size:18px;fill:#333;}#my-svg rect.text{fill:none;stroke-width:0;}#my-svg .icon-shape,#my-svg .image-shape{background-color:rgba(232,232,232, 0.8);text-align:center;}#my-svg .icon-shape p,#my-svg .image-shape p{background-color:rgba(232,232,232, 0.8);padding:2px;}#my-svg .icon-shape rect,#my-svg .image-shape rect{opacity:0.5;background-color:rgba(232,232,232, 0.8);fill:rgba(232,232,232, 0.8);}#my-svg .label-icon{display:inline-block;height:1em;overflow:visible;vertical-align:-0.125em;}#my-svg .node .label-icon path{fill:currentColor;stroke:revert;stroke-width:revert;}#my-svg :root{--mermaid-font-family:"trebuchet ms",verdana,arial,sans-serif;}</style><g><marker id="my-svg_flowchart-v2-pointEnd" class="marker flowchart-v2" viewBox="0 0 10 10" refX="5" refY="5" markerUnits="userSpaceOnUse" markerWidth="8" markerHeight="8" orient="auto"><path d="M 0 0 L 10 5 L 0 10 z" class="arrowMarkerPath" style="stroke-width: 1; stroke-dasharray: 1, 0;"/></marker><marker id="my-svg_flowchart-v2-pointStart" class="marker flowchart-v2" viewBox="0 0 10 10" refX="4.5" refY="5" markerUnits="userSpaceOnUse" markerWidth="8" markerHeight="8" orient="auto"><path d="M 0 5 L 10 10 L 10 0 z" class="arrowMarkerPath" style="stroke-width: 1; stroke-dasharray: 1, 0;"/></marker><marker id="my-svg_flowchart-v2-circleEnd" class="marker flowchart-v2" viewBox="0 0 10 10" refX="11" refY="5" markerUnits="userSpaceOnUse" markerWidth="11" markerHeight="11" orient="auto"><circle cx="5" cy="5" r="5" class="arrowMarkerPath" style="stroke-width: 1; stroke-dasharray: 1, 0;"/></marker><marker id="my-svg_flowchart-v2-circleStart" class="marker flowchart-v2" viewBox="0 0 10 10" refX="-1" refY="5" markerUnits="userSpaceOnUse" markerWidth="11" markerHeight="11" orient="auto"><circle cx="5" cy="5" r="5" class="arrowMarkerPath" style="stroke-width: 1; stroke-dasharray: 1, 0;"/></marker><marker id="my-svg_flowchart-v2-crossEnd" class="marker cross flowchart-v2" viewBox="0 0 11 11" refX="12" refY="5.2" markerUnits="userSpaceOnUse" markerWidth="11" markerHeight="11" orient="auto"><path d="M 1,1 l 9,9 M 10,1 l -9,9" class="arrowMarkerPath" style="stroke-width: 2; stroke-dasharray: 1, 0;"/></marker><marker id="my-svg_flowchart-v2-crossStart" class="marker cross flowchart-v2" viewBox="0 0 11 11" refX="-1" refY="5.2" markerUnits="userSpaceOnUse" markerWidth="11" markerHeight="11" orient="auto"><path d="M 1,1 l 9,9 M 10,1 l -9,9" class="arrowMarkerPath" style="stroke-width: 2; stroke-dasharray: 1, 0;"/></marker><g class="root"><g class="clusters"><g class="cluster" id="Orchestration" data-look="classic"><rect style="" x="30.90625" y="8" width="1275.08203125" height="104"/><g class="cluster-label" transform="translate(597.330078125, 8)"><foreignObject width="142.234375" height="24"><div xmlns="http://www.w3.org/1999/xhtml" style="display: table-cell; white-space: nowrap; line-height: 1.5; max-width: 200px; text-align: center;"><span class="nodeLabel"><p>Orchestration Layer</p></span></div></foreignObject></g></g><g class="cluster" id="Consumers" data-look="classic"><rect style="" x="264.0546875" y="162" width="1137.58984375" height="104"/><g class="cluster-label" transform="translate(775.591796875, 162)"><foreignObject width="114.515625" height="24"><div xmlns="http://www.w3.org/1999/xhtml" style="display: table-cell; white-space: nowrap; line-height: 1.5; max-width: 200px; text-align: center;"><span class="nodeLabel"><p>Consumer Layer</p></span></div></foreignObject></g></g><g class="cluster" id="Foundation" data-look="classic"><rect style="" x="8" y="316" width="1302.96484375" height="208"/><g class="cluster-label" transform="translate(597.388671875, 316)"><foreignObject width="124.1875" height="24"><div xmlns="http://www.w3.org/1999/xhtml" style="display: table-cell; white-space: nowrap; line-height: 1.5; max-width: 200px; text-align: center;"><span class="nodeLabel"><p>Foundation Layer</p></span></div></foreignObject></g></g></g><g class="edgePaths"><path d="M462.52,67.766L402.135,75.138C341.75,82.511,220.98,97.255,160.596,108.794C100.211,120.333,100.211,128.667,100.211,137C100.211,145.333,100.211,153.667,100.211,166.5C100.211,179.333,100.211,196.667,100.211,214C100.211,231.333,100.211,248.667,100.211,261.5C100.211,274.333,100.211,282.667,100.211,291C100.211,299.333,100.211,307.667,121.965,316.989C143.718,326.312,187.226,336.623,208.979,341.779L230.733,346.935" id="L_Canvodpy_Readers_0" class="edge-thickness-thick edge-pattern-solid edge-thickness-normal edge-pattern-solid flowchart-link" style=";" data-edge="true" data-et="edge" data-id="L_Canvodpy_Readers_0" data-points="W3sieCI6NDYyLjUxOTUzMTI1LCJ5Ijo2Ny43NjYwMjAwODUyOTM3Mn0seyJ4IjoxMDAuMjEwOTM3NSwieSI6MTEyfSx7IngiOjEwMC4yMTA5Mzc1LCJ5IjoxMzd9LHsieCI6MTAwLjIxMDkzNzUsInkiOjE2Mn0seyJ4IjoxMDAuMjEwOTM3NSwieSI6MjE0fSx7IngiOjEwMC4yMTA5Mzc1LCJ5IjoyNjZ9LHsieCI6MTAwLjIxMDkzNzUsInkiOjI5MX0seyJ4IjoxMDAuMjEwOTM3NSwieSI6MzE2fSx7IngiOjIzNC42MjUsInkiOjM0Ny44NTc3MDc1MDk4ODE0NH1d" marker-end="url(#my-svg_flowchart-v2-pointEnd)"/><path d="M462.52,73.61L432.617,80.009C402.714,86.407,342.908,99.203,313.005,109.768C283.102,120.333,283.102,128.667,303.585,137C324.068,145.333,365.034,153.667,385.517,161.333C406,169,406,176,406,179.5L406,183" id="L_Canvodpy_Aux_0" class="edge-thickness-thick edge-pattern-solid edge-thickness-normal edge-pattern-solid flowchart-link" style=";" data-edge="true" data-et="edge" data-id="L_Canvodpy_Aux_0" data-points="W3sieCI6NDYyLjUxOTUzMTI1LCJ5Ijo3My42MTAzNTEyMDE0Nzg3NX0seyJ4IjoyODMuMTAxNTYyNSwieSI6MTEyfSx7IngiOjI4My4xMDE1NjI1LCJ5IjoxMzd9LHsieCI6NDA2LCJ5IjoxNjJ9LHsieCI6NDA2LCJ5IjoxODd9XQ==" marker-end="url(#my-svg_flowchart-v2-pointEnd)"/><path d="M462.52,86.939L452.657,91.116C442.794,95.293,423.069,103.646,413.206,111.99C403.344,120.333,403.344,128.667,440.096,137C476.848,145.333,550.352,153.667,587.104,161.333C623.855,169,623.855,176,623.855,179.5L623.855,183" id="L_Canvodpy_Store_0" class="edge-thickness-thick edge-pattern-solid edge-thickness-normal edge-pattern-solid flowchart-link" style=";" data-edge="true" data-et="edge" data-id="L_Canvodpy_Store_0" data-points="W3sieCI6NDYyLjUxOTUzMTI1LCJ5Ijo4Ni45Mzg4MjIyNTY4NjM4fSx7IngiOjQwMy4zNDM3NSwieSI6MTEyfSx7IngiOjQwMy4zNDM3NSwieSI6MTM3fSx7IngiOjYyMy44NTU0Njg3NSwieSI6MTYyfSx7IngiOjYyMy44NTU0Njg3NSwieSI6MTg3fV0=" marker-end="url(#my-svg_flowchart-v2-pointEnd)"/><path d="M472.76,87L464.524,91.167C456.288,95.333,439.816,103.667,431.58,112C423.344,120.333,423.344,128.667,376.155,137C328.966,145.333,234.589,153.667,187.4,166.5C140.211,179.333,140.211,196.667,140.211,214C140.211,231.333,140.211,248.667,140.211,261.5C140.211,274.333,140.211,282.667,140.211,291C140.211,299.333,140.211,307.667,138.397,315.406C136.584,323.144,132.957,330.289,131.144,333.861L129.33,337.433" id="L_Canvodpy_VOD_0" class="edge-thickness-thick edge-pattern-solid edge-thickness-normal edge-pattern-solid flowchart-link" style=";" data-edge="true" data-et="edge" data-id="L_Canvodpy_VOD_0" data-points="W3sieCI6NDcyLjc1OTY5MDUwNDgwNzcsInkiOjg3fSx7IngiOjQyMy4zNDM3NSwieSI6MTEyfSx7IngiOjQyMy4zNDM3NSwieSI6MTM3fSx7IngiOjE0MC4yMTA5Mzc1LCJ5IjoxNjJ9LHsieCI6MTQwLjIxMDkzNzUsInkiOjIxNH0seyJ4IjoxNDAuMjEwOTM3NSwieSI6MjY2fSx7IngiOjE0MC4yMTA5Mzc1LCJ5IjoyOTF9LHsieCI6MTQwLjIxMDkzNzUsInkiOjMxNn0seyJ4IjoxMjcuNTE5MzgxMDA5NjE1MzksInkiOjM0MX1d" marker-end="url(#my-svg_flowchart-v2-pointEnd)"/><path d="M494.02,87L489.065,91.167C484.11,95.333,474.199,103.667,469.244,112C464.289,120.333,464.289,128.667,417.1,137C369.911,145.333,275.534,153.667,228.345,166.5C181.156,179.333,181.156,196.667,181.156,214C181.156,231.333,181.156,248.667,181.156,261.5C181.156,274.333,181.156,282.667,181.156,291C181.156,299.333,181.156,307.667,237.902,318.864C294.648,330.062,408.14,344.124,464.886,351.155L521.632,358.186" id="L_Canvodpy_Grids_0" class="edge-thickness-thick edge-pattern-solid edge-thickness-normal edge-pattern-solid flowchart-link" style=";" data-edge="true" data-et="edge" data-id="L_Canvodpy_Grids_0" data-points="W3sieCI6NDk0LjAxOTc1NjYxMDU3NjksInkiOjg3fSx7IngiOjQ2NC4yODkwNjI1LCJ5IjoxMTJ9LHsieCI6NDY0LjI4OTA2MjUsInkiOjEzN30seyJ4IjoxODEuMTU2MjUsInkiOjE2Mn0seyJ4IjoxODEuMTU2MjUsInkiOjIxNH0seyJ4IjoxODEuMTU2MjUsInkiOjI2Nn0seyJ4IjoxODEuMTU2MjUsInkiOjI5MX0seyJ4IjoxODEuMTU2MjUsInkiOjMxNn0seyJ4Ijo1MjUuNjAxNTYyNSwieSI6MzU4LjY3NzM2NDExMDIwMTA0fV0=" marker-end="url(#my-svg_flowchart-v2-pointEnd)"/><path d="M589.738,71.32L627.835,78.1C665.931,84.88,742.124,98.44,780.22,109.387C818.316,120.333,818.316,128.667,818.316,137C818.316,145.333,818.316,153.667,818.316,161.333C818.316,169,818.316,176,818.316,179.5L818.316,183" id="L_Canvodpy_Viz_0" class="edge-thickness-thick edge-pattern-solid edge-thickness-normal edge-pattern-solid flowchart-link" style=";" data-edge="true" data-et="edge" data-id="L_Canvodpy_Viz_0" data-points="W3sieCI6NTg5LjczODI4MTI1LCJ5Ijo3MS4zMjA0Mjc4MDc0ODY2Mn0seyJ4Ijo4MTguMzE2NDA2MjUsInkiOjExMn0seyJ4Ijo4MTguMzE2NDA2MjUsInkiOjEzN30seyJ4Ijo4MTguMzE2NDA2MjUsInkiOjE2Mn0seyJ4Ijo4MTguMzE2NDA2MjUsInkiOjE4N31d" marker-end="url(#my-svg_flowchart-v2-pointEnd)"/><path d="M589.738,66.884L659.214,74.404C728.689,81.923,867.639,96.961,937.115,108.647C1006.59,120.333,1006.59,128.667,1006.59,137C1006.59,145.333,1006.59,153.667,1006.59,161.333C1006.59,169,1006.59,176,1006.59,179.5L1006.59,183" id="L_Canvodpy_OPS_0" class="edge-thickness-thick edge-pattern-solid edge-thickness-normal edge-pattern-solid flowchart-link" style=";" data-edge="true" data-et="edge" data-id="L_Canvodpy_OPS_0" data-points="W3sieCI6NTg5LjczODI4MTI1LCJ5Ijo2Ni44ODQ0MDQ2MjQ0NjU0M30seyJ4IjoxMDA2LjU4OTg0Mzc1LCJ5IjoxMTJ9LHsieCI6MTAwNi41ODk4NDM3NSwieSI6MTM3fSx7IngiOjEwMDYuNTg5ODQzNzUsInkiOjE2Mn0seyJ4IjoxMDA2LjU4OTg0Mzc1LCJ5IjoxODd9XQ==" marker-end="url(#my-svg_flowchart-v2-pointEnd)"/><path d="M589.738,64.59L699.229,72.492C808.72,80.394,1027.702,96.197,1137.193,108.265C1246.684,120.333,1246.684,128.667,1246.684,137C1246.684,145.333,1246.684,153.667,1246.684,161.333C1246.684,169,1246.684,176,1246.684,179.5L1246.684,183" id="L_Canvodpy_NAMING_0" class="edge-thickness-thick edge-pattern-solid edge-thickness-normal edge-pattern-solid flowchart-link" style=";" data-edge="true" data-et="edge" data-id="L_Canvodpy_NAMING_0" data-points="W3sieCI6NTg5LjczODI4MTI1LCJ5Ijo2NC41OTA0NzM5MTg3NDc0OX0seyJ4IjoxMjQ2LjY4MzU5Mzc1LCJ5IjoxMTJ9LHsieCI6MTI0Ni42ODM1OTM3NSwieSI6MTM3fSx7IngiOjEyNDYuNjgzNTkzNzUsInkiOjE2Mn0seyJ4IjoxMjQ2LjY4MzU5Mzc1LCJ5IjoxODd9XQ==" marker-end="url(#my-svg_flowchart-v2-pointEnd)"/><path d="M374.85,241L370.043,245.167C365.236,249.333,355.622,257.667,350.815,266C346.008,274.333,346.008,282.667,346.008,291C346.008,299.333,346.008,307.667,344.194,315.406C342.381,323.144,338.754,330.289,336.94,333.861L335.127,337.433" id="L_Aux_Readers_0" class="edge-thickness-normal edge-pattern-dotted edge-thickness-normal edge-pattern-solid flowchart-link" style=";" data-edge="true" data-et="edge" data-id="L_Aux_Readers_0" data-points="W3sieCI6Mzc0Ljg1MDIxMDMzNjUzODQ1LCJ5IjoyNDF9LHsieCI6MzQ2LjAwNzgxMjUsInkiOjI2Nn0seyJ4IjozNDYuMDA3ODEyNSwieSI6MjkxfSx7IngiOjM0Ni4wMDc4MTI1LCJ5IjozMTZ9LHsieCI6MzMzLjMxNjI1NjAwOTYxNTM2LCJ5IjozNDF9XQ==" marker-end="url(#my-svg_flowchart-v2-pointEnd)"/><path d="M449.928,241L456.707,245.167C463.486,249.333,477.044,257.667,483.823,266C490.602,274.333,490.602,282.667,490.602,291C490.602,299.333,490.602,307.667,490.602,320.5C490.602,333.333,490.602,350.667,490.602,368C490.602,385.333,490.602,402.667,505.266,415.945C519.93,429.223,549.258,438.445,563.922,443.056L578.587,447.668" id="L_Aux_Utils_0" class="edge-thickness-normal edge-pattern-dotted edge-thickness-normal edge-pattern-solid flowchart-link" style=";" data-edge="true" data-et="edge" data-id="L_Aux_Utils_0" data-points="W3sieCI6NDQ5LjkyNzczNDM3NSwieSI6MjQxfSx7IngiOjQ5MC42MDE1NjI1LCJ5IjoyNjZ9LHsieCI6NDkwLjYwMTU2MjUsInkiOjI5MX0seyJ4Ijo0OTAuNjAxNTYyNSwieSI6MzE2fSx7IngiOjQ5MC42MDE1NjI1LCJ5IjozNjh9LHsieCI6NDkwLjYwMTU2MjUsInkiOjQyMH0seyJ4Ijo1ODIuNDAyMzQzNzUsInkiOjQ0OC44Njc1OTczODI2NTY1fV0=" marker-end="url(#my-svg_flowchart-v2-pointEnd)"/><path d="M571.807,241L563.774,245.167C555.742,249.333,539.678,257.667,531.646,266C523.613,274.333,523.613,282.667,523.613,291C523.613,299.333,523.613,307.667,504.423,316.725C485.232,325.783,446.851,335.566,427.66,340.458L408.47,345.35" id="L_Store_Readers_0" class="edge-thickness-normal edge-pattern-dotted edge-thickness-normal edge-pattern-solid flowchart-link" style=";" data-edge="true" data-et="edge" data-id="L_Store_Readers_0" data-points="W3sieCI6NTcxLjgwNjY0MDYyNSwieSI6MjQxfSx7IngiOjUyMy42MTMyODEyNSwieSI6MjY2fSx7IngiOjUyMy42MTMyODEyNSwieSI6MjkxfSx7IngiOjUyMy42MTMyODEyNSwieSI6MzE2fSx7IngiOjQwNC41OTM3NSwieSI6MzQ2LjMzNzczMDk3MTc1Njh9XQ==" marker-end="url(#my-svg_flowchart-v2-pointEnd)"/><path d="M669.148,241L676.138,245.167C683.127,249.333,697.107,257.667,704.096,266C711.086,274.333,711.086,282.667,711.086,291C711.086,299.333,711.086,307.667,711.086,320.5C711.086,333.333,711.086,350.667,711.086,368C711.086,385.333,711.086,402.667,707.154,415.043C703.222,427.418,695.359,434.837,691.427,438.546L687.495,442.255" id="L_Store_Utils_0" class="edge-thickness-normal edge-pattern-dotted edge-thickness-normal edge-pattern-solid flowchart-link" style=";" data-edge="true" data-et="edge" data-id="L_Store_Utils_0" data-points="W3sieCI6NjY5LjE0ODIxMjEzOTQyMzEsInkiOjI0MX0seyJ4Ijo3MTEuMDg1OTM3NSwieSI6MjY2fSx7IngiOjcxMS4wODU5Mzc1LCJ5IjoyOTF9LHsieCI6NzExLjA4NTkzNzUsInkiOjMxNn0seyJ4Ijo3MTEuMDg1OTM3NSwieSI6MzY4fSx7IngiOjcxMS4wODU5Mzc1LCJ5Ijo0MjB9LHsieCI6Njg0LjU4NTQxMTY1ODY1MzgsInkiOjQ0NX1d" marker-end="url(#my-svg_flowchart-v2-pointEnd)"/><path d="M600.844,395L600.844,399.167C600.844,403.333,600.844,411.667,604.776,419.543C608.707,427.418,616.571,434.837,620.503,438.546L624.435,442.255" id="L_Grids_Utils_0" class="edge-thickness-normal edge-pattern-dotted edge-thickness-normal edge-pattern-solid flowchart-link" style=";" data-edge="true" data-et="edge" data-id="L_Grids_Utils_0" data-points="W3sieCI6NjAwLjg0Mzc1LCJ5IjozOTV9LHsieCI6NjAwLjg0Mzc1LCJ5Ijo0MjB9LHsieCI6NjI3LjM0NDI3NTg0MTM0NjIsInkiOjQ0NX1d" marker-end="url(#my-svg_flowchart-v2-pointEnd)"/><path d="M818.316,241L818.316,245.167C818.316,249.333,818.316,257.667,818.316,266C818.316,274.333,818.316,282.667,818.316,291C818.316,299.333,818.316,307.667,795.26,317.346C772.203,327.026,726.09,338.052,703.033,343.565L679.976,349.079" id="L_Viz_Grids_0" class="edge-thickness-normal edge-pattern-dotted edge-thickness-normal edge-pattern-solid flowchart-link" style=";" data-edge="true" data-et="edge" data-id="L_Viz_Grids_0" data-points="W3sieCI6ODE4LjMxNjQwNjI1LCJ5IjoyNDF9LHsieCI6ODE4LjMxNjQwNjI1LCJ5IjoyNjZ9LHsieCI6ODE4LjMxNjQwNjI1LCJ5IjoyOTF9LHsieCI6ODE4LjMxNjQwNjI1LCJ5IjozMTZ9LHsieCI6Njc2LjA4NTkzNzUsInkiOjM1MC4wMDg4MDEzOTM4NTM0fV0=" marker-end="url(#my-svg_flowchart-v2-pointEnd)"/><path d="M962.903,241L956.162,245.167C949.42,249.333,935.937,257.667,929.195,266C922.453,274.333,922.453,282.667,922.453,291C922.453,299.333,922.453,307.667,882.05,318.366C841.647,329.065,760.841,342.131,720.438,348.663L680.035,355.196" id="L_OPS_Grids_0" class="edge-thickness-normal edge-pattern-dotted edge-thickness-normal edge-pattern-solid flowchart-link" style=";" data-edge="true" data-et="edge" data-id="L_OPS_Grids_0" data-points="W3sieCI6OTYyLjkwMzQ3MDU1Mjg4NDYsInkiOjI0MX0seyJ4Ijo5MjIuNDUzMTI1LCJ5IjoyNjZ9LHsieCI6OTIyLjQ1MzEyNSwieSI6MjkxfSx7IngiOjkyMi40NTMxMjUsInkiOjMxNn0seyJ4Ijo2NzYuMDg1OTM3NSwieSI6MzU1LjgzNDMyOTMwMDg3OTM1fV0=" marker-end="url(#my-svg_flowchart-v2-pointEnd)"/><path d="M1063.73,241L1072.547,245.167C1081.365,249.333,1099.001,257.667,1107.819,266C1116.637,274.333,1116.637,282.667,1116.637,291C1116.637,299.333,1116.637,307.667,1116.637,320.5C1116.637,333.333,1116.637,350.667,1116.637,368C1116.637,385.333,1116.637,402.667,1052.781,418.541C988.925,434.416,861.214,448.832,797.358,456.04L733.502,463.248" id="L_OPS_Utils_0" class="edge-thickness-normal edge-pattern-dotted edge-thickness-normal edge-pattern-solid flowchart-link" style=";" data-edge="true" data-et="edge" data-id="L_OPS_Utils_0" data-points="W3sieCI6MTA2My43Mjk1NjczMDc2OTI0LCJ5IjoyNDF9LHsieCI6MTExNi42MzY3MTg3NSwieSI6MjY2fSx7IngiOjExMTYuNjM2NzE4NzUsInkiOjI5MX0seyJ4IjoxMTE2LjYzNjcxODc1LCJ5IjozMTZ9LHsieCI6MTExNi42MzY3MTg3NSwieSI6MzY4fSx7IngiOjExMTYuNjM2NzE4NzUsInkiOjQyMH0seyJ4Ijo3MjkuNTI3MzQzNzUsInkiOjQ2My42OTYzNjczOTgxNjE2N31d" marker-end="url(#my-svg_flowchart-v2-pointEnd)"/><path d="M1246.684,241L1246.684,245.167C1246.684,249.333,1246.684,257.667,1246.684,266C1246.684,274.333,1246.684,282.667,1246.684,291C1246.684,299.333,1246.684,307.667,1246.684,320.5C1246.684,333.333,1246.684,350.667,1246.684,368C1246.684,385.333,1246.684,402.667,1161.155,418.862C1075.626,435.058,904.569,450.116,819.041,457.645L733.512,465.174" id="L_NAMING_Utils_0" class="edge-thickness-normal edge-pattern-dotted edge-thickness-normal edge-pattern-solid flowchart-link" style=";" data-edge="true" data-et="edge" data-id="L_NAMING_Utils_0" data-points="W3sieCI6MTI0Ni42ODM1OTM3NSwieSI6MjQxfSx7IngiOjEyNDYuNjgzNTkzNzUsInkiOjI2Nn0seyJ4IjoxMjQ2LjY4MzU5Mzc1LCJ5IjoyOTF9LHsieCI6MTI0Ni42ODM1OTM3NSwieSI6MzE2fSx7IngiOjEyNDYuNjgzNTkzNzUsInkiOjM2OH0seyJ4IjoxMjQ2LjY4MzU5Mzc1LCJ5Ijo0MjB9LHsieCI6NzI5LjUyNzM0Mzc1LCJ5Ijo0NjUuNTI0NDE0MTE0MTYxOH1d" marker-end="url(#my-svg_flowchart-v2-pointEnd)"/><path d="M319.609,395L319.609,399.167C319.609,403.333,319.609,411.667,362.749,422.503C405.889,433.339,492.169,446.677,535.309,453.347L578.449,460.016" id="L_Readers_Utils_0" class="edge-thickness-normal edge-pattern-dotted edge-thickness-normal edge-pattern-solid flowchart-link" style=";" data-edge="true" data-et="edge" data-id="L_Readers_Utils_0" data-points="W3sieCI6MzE5LjYwOTM3NSwieSI6Mzk1fSx7IngiOjMxOS42MDkzNzUsInkiOjQyMH0seyJ4Ijo1ODIuNDAyMzQzNzUsInkiOjQ2MC42MjczNTg5ODM1OTAxN31d" marker-end="url(#my-svg_flowchart-v2-pointEnd)"/></g><g class="edgeLabels"><g class="edgeLabel"><g class="label" data-id="L_Canvodpy_Readers_0" transform="translate(0, 0)"><foreignObject width="0" height="0"><div xmlns="http://www.w3.org/1999/xhtml" class="labelBkg" style="display: table-cell; white-space: nowrap; line-height: 1.5; max-width: 200px; text-align: center;"><span class="edgeLabel"></span></div></foreignObject></g></g><g class="edgeLabel"><g class="label" data-id="L_Canvodpy_Aux_0" transform="translate(0, 0)"><foreignObject width="0" height="0"><div xmlns="http://www.w3.org/1999/xhtml" class="labelBkg" style="display: table-cell; white-space: nowrap; line-height: 1.5; max-width: 200px; text-align: center;"><span class="edgeLabel"></span></div></foreignObject></g></g><g class="edgeLabel"><g class="label" data-id="L_Canvodpy_Store_0" transform="translate(0, 0)"><foreignObject width="0" height="0"><div xmlns="http://www.w3.org/1999/xhtml" class="labelBkg" style="display: table-cell; white-space: nowrap; line-height: 1.5; max-width: 200px; text-align: center;"><span class="edgeLabel"></span></div></foreignObject></g></g><g class="edgeLabel"><g class="label" data-id="L_Canvodpy_VOD_0" transform="translate(0, 0)"><foreignObject width="0" height="0"><div xmlns="http://www.w3.org/1999/xhtml" class="labelBkg" style="display: table-cell; white-space: nowrap; line-height: 1.5; max-width: 200px; text-align: center;"><span class="edgeLabel"></span></div></foreignObject></g></g><g class="edgeLabel"><g class="label" data-id="L_Canvodpy_Grids_0" transform="translate(0, 0)"><foreignObject width="0" height="0"><div xmlns="http://www.w3.org/1999/xhtml" class="labelBkg" style="display: table-cell; white-space: nowrap; line-height: 1.5; max-width: 200px; text-align: center;"><span class="edgeLabel"></span></div></foreignObject></g></g><g class="edgeLabel"><g class="label" data-id="L_Canvodpy_Viz_0" transform="translate(0, 0)"><foreignObject width="0" height="0"><div xmlns="http://www.w3.org/1999/xhtml" class="labelBkg" style="display: table-cell; white-space: nowrap; line-height: 1.5; max-width: 200px; text-align: center;"><span class="edgeLabel"></span></div></foreignObject></g></g><g class="edgeLabel"><g class="label" data-id="L_Canvodpy_OPS_0" transform="translate(0, 0)"><foreignObject width="0" height="0"><div xmlns="http://www.w3.org/1999/xhtml" class="labelBkg" style="display: table-cell; white-space: nowrap; line-height: 1.5; max-width: 200px; text-align: center;"><span class="edgeLabel"></span></div></foreignObject></g></g><g class="edgeLabel"><g class="label" data-id="L_Canvodpy_NAMING_0" transform="translate(0, 0)"><foreignObject width="0" height="0"><div xmlns="http://www.w3.org/1999/xhtml" class="labelBkg" style="display: table-cell; white-space: nowrap; line-height: 1.5; max-width: 200px; text-align: center;"><span class="edgeLabel"></span></div></foreignObject></g></g><g class="edgeLabel"><g class="label" data-id="L_Aux_Readers_0" transform="translate(0, 0)"><foreignObject width="0" height="0"><div xmlns="http://www.w3.org/1999/xhtml" class="labelBkg" style="display: table-cell; white-space: nowrap; line-height: 1.5; max-width: 200px; text-align: center;"><span class="edgeLabel"></span></div></foreignObject></g></g><g class="edgeLabel"><g class="label" data-id="L_Aux_Utils_0" transform="translate(0, 0)"><foreignObject width="0" height="0"><div xmlns="http://www.w3.org/1999/xhtml" class="labelBkg" style="display: table-cell; white-space: nowrap; line-height: 1.5; max-width: 200px; text-align: center;"><span class="edgeLabel"></span></div></foreignObject></g></g><g class="edgeLabel"><g class="label" data-id="L_Store_Readers_0" transform="translate(0, 0)"><foreignObject width="0" height="0"><div xmlns="http://www.w3.org/1999/xhtml" class="labelBkg" style="display: table-cell; white-space: nowrap; line-height: 1.5; max-width: 200px; text-align: center;"><span class="edgeLabel"></span></div></foreignObject></g></g><g class="edgeLabel"><g class="label" data-id="L_Store_Utils_0" transform="translate(0, 0)"><foreignObject width="0" height="0"><div xmlns="http://www.w3.org/1999/xhtml" class="labelBkg" style="display: table-cell; white-space: nowrap; line-height: 1.5; max-width: 200px; text-align: center;"><span class="edgeLabel"></span></div></foreignObject></g></g><g class="edgeLabel"><g class="label" data-id="L_Grids_Utils_0" transform="translate(0, 0)"><foreignObject width="0" height="0"><div xmlns="http://www.w3.org/1999/xhtml" class="labelBkg" style="display: table-cell; white-space: nowrap; line-height: 1.5; max-width: 200px; text-align: center;"><span class="edgeLabel"></span></div></foreignObject></g></g><g class="edgeLabel"><g class="label" data-id="L_Viz_Grids_0" transform="translate(0, 0)"><foreignObject width="0" height="0"><div xmlns="http://www.w3.org/1999/xhtml" class="labelBkg" style="display: table-cell; white-space: nowrap; line-height: 1.5; max-width: 200px; text-align: center;"><span class="edgeLabel"></span></div></foreignObject></g></g><g class="edgeLabel"><g class="label" data-id="L_OPS_Grids_0" transform="translate(0, 0)"><foreignObject width="0" height="0"><div xmlns="http://www.w3.org/1999/xhtml" class="labelBkg" style="display: table-cell; white-space: nowrap; line-height: 1.5; max-width: 200px; text-align: center;"><span class="edgeLabel"></span></div></foreignObject></g></g><g class="edgeLabel"><g class="label" data-id="L_OPS_Utils_0" transform="translate(0, 0)"><foreignObject width="0" height="0"><div xmlns="http://www.w3.org/1999/xhtml" class="labelBkg" style="display: table-cell; white-space: nowrap; line-height: 1.5; max-width: 200px; text-align: center;"><span class="edgeLabel"></span></div></foreignObject></g></g><g class="edgeLabel"><g class="label" data-id="L_NAMING_Utils_0" transform="translate(0, 0)"><foreignObject width="0" height="0"><div xmlns="http://www.w3.org/1999/xhtml" class="labelBkg" style="display: table-cell; white-space: nowrap; line-height: 1.5; max-width: 200px; text-align: center;"><span class="edgeLabel"></span></div></foreignObject></g></g><g class="edgeLabel"><g class="label" data-id="L_Readers_Utils_0" transform="translate(0, 0)"><foreignObject width="0" height="0"><div xmlns="http://www.w3.org/1999/xhtml" class="labelBkg" style="display: table-cell; white-space: nowrap; line-height: 1.5; max-width: 200px; text-align: center;"><span class="edgeLabel"></span></div></foreignObject></g></g></g><g class="nodes"><g class="node default" id="flowchart-Utils-0" transform="translate(655.96484375, 472)"><rect class="basic label-container" style="" x="-73.5625" y="-27" width="147.125" height="54"/><g class="label" style="" transform="translate(-43.5625, -12)"><rect/><foreignObject width="87.125" height="24"><div xmlns="http://www.w3.org/1999/xhtml" style="display: table-cell; white-space: nowrap; line-height: 1.5; max-width: 200px; text-align: center;"><span class="nodeLabel"><p>canvod-utils</p></span></div></foreignObject></g></g><g class="node default" id="flowchart-Readers-1" transform="translate(319.609375, 368)"><rect class="basic label-container" style="" x="-84.984375" y="-27" width="169.96875" height="54"/><g class="label" style="" transform="translate(-54.984375, -12)"><rect/><foreignObject width="109.96875" height="24"><div xmlns="http://www.w3.org/1999/xhtml" style="display: table-cell; white-space: nowrap; line-height: 1.5; max-width: 200px; text-align: center;"><span class="nodeLabel"><p>canvod-readers</p></span></div></foreignObject></g></g><g class="node default" id="flowchart-Grids-2" transform="translate(600.84375, 368)"><rect class="basic label-container" style="" x="-75.2421875" y="-27" width="150.484375" height="54"/><g class="label" style="" transform="translate(-45.2421875, -12)"><rect/><foreignObject width="90.484375" height="24"><div xmlns="http://www.w3.org/1999/xhtml" style="display: table-cell; white-space: nowrap; line-height: 1.5; max-width: 200px; text-align: center;"><span class="nodeLabel"><p>canvod-grids</p></span></div></foreignObject></g></g><g class="node default" id="flowchart-VOD-3" transform="translate(113.8125, 368)"><rect class="basic label-container" style="" x="-70.8125" y="-27" width="141.625" height="54"/><g class="label" style="" transform="translate(-40.8125, -12)"><rect/><foreignObject width="81.625" height="24"><div xmlns="http://www.w3.org/1999/xhtml" style="display: table-cell; white-space: nowrap; line-height: 1.5; max-width: 200px; text-align: center;"><span class="nodeLabel"><p>canvod-vod</p></span></div></foreignObject></g></g><g class="node default" id="flowchart-Aux-4" transform="translate(406, 214)"><rect class="basic label-container" style="" x="-88.90625" y="-27" width="177.8125" height="54"/><g class="label" style="" transform="translate(-58.90625, -12)"><rect/><foreignObject width="117.8125" height="24"><div xmlns="http://www.w3.org/1999/xhtml" style="display: table-cell; white-space: nowrap; line-height: 1.5; max-width: 200px; text-align: center;"><span class="nodeLabel"><p>canvod-auxiliary</p></span></div></foreignObject></g></g><g class="node default" id="flowchart-Store-5" transform="translate(623.85546875, 214)"><rect class="basic label-container" style="" x="-76.3203125" y="-27" width="152.640625" height="54"/><g class="label" style="" transform="translate(-46.3203125, -12)"><rect/><foreignObject width="92.640625" height="24"><div xmlns="http://www.w3.org/1999/xhtml" style="display: table-cell; white-space: nowrap; line-height: 1.5; max-width: 200px; text-align: center;"><span class="nodeLabel"><p>canvod-store</p></span></div></foreignObject></g></g><g class="node default" id="flowchart-Viz-6" transform="translate(818.31640625, 214)"><rect class="basic label-container" style="" x="-68.140625" y="-27" width="136.28125" height="54"/><g class="label" style="" transform="translate(-38.140625, -12)"><rect/><foreignObject width="76.28125" height="24"><div xmlns="http://www.w3.org/1999/xhtml" style="display: table-cell; white-space: nowrap; line-height: 1.5; max-width: 200px; text-align: center;"><span class="nodeLabel"><p>canvod-viz</p></span></div></foreignObject></g></g><g class="node default" id="flowchart-OPS-7" transform="translate(1006.58984375, 214)"><rect class="basic label-container" style="" x="-70.1328125" y="-27" width="140.265625" height="54"/><g class="label" style="" transform="translate(-40.1328125, -12)"><rect/><foreignObject width="80.265625" height="24"><div xmlns="http://www.w3.org/1999/xhtml" style="display: table-cell; white-space: nowrap; line-height: 1.5; max-width: 200px; text-align: center;"><span class="nodeLabel"><p>canvod-ops</p></span></div></foreignObject></g></g><g class="node default" id="flowchart-NAMING-8" transform="translate(1246.68359375, 214)"><rect class="basic label-container" style="" x="-119.9609375" y="-27" width="239.921875" height="54"/><g class="label" style="" transform="translate(-89.9609375, -12)"><rect/><foreignObject width="179.921875" height="24"><div xmlns="http://www.w3.org/1999/xhtml" style="display: table-cell; white-space: nowrap; line-height: 1.5; max-width: 200px; text-align: center;"><span class="nodeLabel"><p>canvod-virtualiconvname</p></span></div></foreignObject></g></g><g class="node default" id="flowchart-Canvodpy-9" transform="translate(526.12890625, 60)"><rect class="basic label-container" style="" x="-63.609375" y="-27" width="127.21875" height="54"/><g class="label" style="" transform="translate(-33.609375, -12)"><rect/><foreignObject width="67.21875" height="24"><div xmlns="http://www.w3.org/1999/xhtml" style="display: table-cell; white-space: nowrap; line-height: 1.5; max-width: 200px; text-align: center;"><span class="nodeLabel"><p>canvodpy</p></span></div></foreignObject></g></g></g></g></g></svg>
